#!OML:ASF E:\motion texture\Top Level 1\Subject 1\Session 1\male.ASF
:FULLY-SPECIFIED
:DEGREES
235
root 8.66238 16.9099 5.83529 133.923 -86.9456 -126.579
lowerback 11.578 -2.60546 0.0945822
upperback 6.05454 -3.72626 3.95532
thorax 0.116646 -2.07081 4.47843
lowerneck -18.3547 1.47891 -2.46349
upperneck 3.58479 1.98418 4.62072
head 3.92011 1.16873 1.99654
rclavicle 9.54166e-015 -1.86858e-014
rhumerus -3.21035 17.6181 -88.0456
rradius 75.1777
rwrist 13.4923
rhand -25.3294 -36.9946
rfingers 7.12502
rthumb 1.19343 -66.971
lclavicle 9.54166e-015 -1.86858e-014
lhumerus 2.53947 -36.7309 104.177
lradius 61.9798
lwrist 38.1997
lhand -19.4794 46.6116
lfingers 7.12502
lthumb 6.84238 76.481
rfemur -45.704 -1.67382 17.1555
rtibia 39.983
rfoot -3.92371 -12.5565
rtoes 3.06595
lfemur -28.2114 2.78041 -20.642
ltibia 47.8451
lfoot -22.2923 6.38006
ltoes -6.42053
236
root 8.48779 16.9315 5.82219 133.557 -87.1266 -126.091
lowerback 11.3503 -2.63949 0.0466896
upperback 5.9487 -3.76766 3.94576
thorax 0.134182 -2.08686 4.48906
lowerneck -18.3149 1.51242 -2.41923
upperneck 3.63123 2.0251 4.55274
head 3.92782 1.18632 1.97158
rclavicle -7.7526e-015 3.1408e-014
rhumerus -4.07548 17.5316 -88.2225
rradius 75.7453
rwrist 12.1368
rhand -25.0536 -37.7289
rfingers 7.12502
rthumb 1.45976 -67.7036
lclavicle -7.7526e-015 3.1408e-014
lhumerus 1.26507 -37.0549 104.413
lradius 62.616
lwrist 38.3362
lhand -19.3507 46.0678
lfingers 7.12502
lthumb 6.96659 75.9331
rfemur -45.574 -1.70429 17.0444
rtibia 38.2203
rfoot -3.68529 -12.191
rtoes 2.79066
lfemur -27.3829 2.56954 -20.7046
ltibia 47.3192
lfoot -22.5203 6.32482
ltoes -6.86789
237
root 8.31268 16.9531 5.80717 132.632 -87.3104 -125.046
lowerback 11.1197 -2.66913 0.00728445
upperback 5.84111 -3.80231 3.93817
thorax 0.150852 -2.09937 4.49599
lowerneck -18.275 1.53925 -2.37635
upperneck 3.68173 2.05699 4.49082
head 3.93711 1.19985 1.94805
rclavicle -1.96797e-014 -2.22639e-014
rhumerus -4.90007 17.4514 -88.3935
rradius 76.3049
rwrist 10.7207
rhand -24.7453 -38.4816
rfingers 7.12502
rthumb 1.75755 -68.4541
lclavicle -1.96797e-014 -2.22639e-014
lhumerus -0.018641 -37.3695 104.663
lradius 63.2665
lwrist 38.4087
lhand -19.222 45.5065
lfingers 7.12502
lthumb 7.09082 75.3677
rfemur -45.4136 -1.7237 16.9353
rtibia 36.5271
rfoot -3.42699 -11.8588
rtoes 2.52164
lfemur -26.5526 2.35086 -20.7451
ltibia 46.7903
lfoot -22.7216 6.25523
ltoes -7.35047
238
root 8.13713 16.9745 5.79024 131.069 -87.4953 -123.366
lowerback 10.8872 -2.69378 -0.0251159
upperback 5.73263 -3.82968 3.93169
thorax 0.166974 -2.1081 4.49919
lowerneck -18.2401 1.55956 -2.33857
upperneck 3.73869 2.0805 4.43875
head 3.94937 1.20988 1.92787
rclavicle -7.31528e-014 4.09496e-014
rhumerus -5.68271 17.3796 -88.5605
rradius 76.8533
rwrist 9.2476
rhand -24.4075 -39.2526
rfingers 7.12502
rthumb 2.08377 -69.2222
lclavicle -7.31528e-014 4.09496e-014
lhumerus -1.30897 -37.6716 104.926
lradius 63.9263
lwrist 38.4167
lhand -19.0855 44.9292
lfingers 7.12502
lthumb 7.22263 74.786
rfemur -45.2268 -1.73168 16.8275
rtibia 34.9129
rfoot -3.15371 -11.5627
rtoes 2.27197
lfemur -25.7243 2.1269 -20.7646
ltibia 46.2636
lfoot -22.8918 6.17029
ltoes -7.87031
239
root 7.96104 16.9958 5.77136 128.642 -87.6792 -120.826
lowerback 10.6534 -2.71376 -0.0497344
upperback 5.62281 -3.85012 3.92684
thorax 0.181671 -2.11323 4.4989
lowerneck -18.2015 1.57248 -2.30203
upperneck 3.79733 2.09401 4.39258
head 3.96192 1.21532 1.90888
rclavicle -7.95139e-016 3.57812e-015
rhumerus -6.42492 17.3168 -88.7252
rradius 77.3863
rwrist 7.71777
rhand -24.0445 -40.047
rfingers 7.12502
rthumb 2.43434 -70.0129
lclavicle -7.95139e-016 3.57812e-015
lhumerus -2.60825 -37.953 105.206
lradius 64.5903
lwrist 38.3439
lhand -18.9161 44.352
lfingers 7.12502
lthumb 7.38609 74.203
rfemur -45.0131 -1.7271 16.7209
rtibia 33.3823
rfoot -2.86963 -11.3086
rtoes 2.05016
lfemur -24.8997 1.89693 -20.7601
ltibia 45.7457
lfoot -23.0329 6.06649
ltoes -8.42488
240
root 7.78449 17.017 5.75056 125.177 -87.8567 -117.252
lowerback 10.4189 -2.72844 -0.0672803
upperback 5.51195 -3.86294 3.92341
thorax 0.194982 -2.11444 4.49532
lowerneck -18.1589 1.57694 -2.26938
upperneck 3.85494 2.09668 4.35276
head 3.97386 1.21572 1.89154
rclavicle 4.01545e-014 -3.93594e-014
rhumerus -7.12538 17.2651 -88.8883
rradius 77.9001
rwrist 6.13905
rhand -23.655 -40.8592
rfingers 7.12502
rthumb 2.81054 -70.8205
lclavicle 4.01545e-014 -3.93594e-014
lhumerus -3.91448 -38.214 105.499
lradius 65.255
lwrist 38.2046
lhand -18.7468 43.7578
lfingers 7.12502
lthumb 7.54958 73.603
rfemur -44.777 -1.70857 16.6163
rtibia 31.9431
rfoot -2.57917 -11.0954
rtoes 1.8586
lfemur -24.0841 1.66387 -20.7315
ltibia 45.2426
lfoot -23.1419 5.94336
ltoes -9.02089
241
root 7.60761 17.0381 5.72781 120.394 -88.0239 -112.363
lowerback 10.1855 -2.73788 -0.0795016
upperback 5.40054 -3.86838 3.92084
thorax 0.206487 -2.1119 4.48903
lowerneck -18.1238 1.57439 -2.23979
upperneck 3.92163 2.08993 4.32115
head 3.99001 1.21207 1.87669
rclavicle 5.1684e-015 -4.41302e-014
rhumerus -7.78314 17.223 -89.0503
rradius 78.393
rwrist 4.51885
rhand -23.2439 -41.6873
rfingers 7.12502
rthumb 3.20755 -71.643
lclavicle 5.1684e-015 -4.41302e-014
lhumerus -5.22425 -38.4467 105.807
lradius 65.912
lwrist 37.973
lhand -18.5437 43.1594
lfingers 7.12502
lthumb 7.74562 72.9975
rfemur -44.5205 -1.67794 16.5113
rtibia 30.6003
rfoot -2.29332 -10.9211
rtoes 1.72755
lfemur -23.2826 1.42609 -20.6799
ltibia 44.7622
lfoot -23.2174 5.79875
ltoes -9.65641
242
root 7.43031 17.0591 5.70317 114.19 -88.168 -106.06
lowerback 9.95442 -2.73956 -0.0865613
upperback 5.29036 -3.86332 3.91867
thorax 0.217123 -2.10413 4.47942
lowerneck -18.0918 1.5637 -2.21381
upperneck 3.99189 2.07253 4.29676
head 4.00801 1.20361 1.86387
rclavicle -1.2921e-014 3.97569e-016
rhumerus -8.39545 17.1892 -89.212
rradius 78.8592
rwrist 2.8712
rhand -22.813 -42.5256
rfingers 7.12502
rthumb 3.62371 -72.4745
lclavicle -1.2921e-014 3.97569e-016
lhumerus -6.53567 -38.6511 106.125
lradius 66.5568
lwrist 37.6535
lhand -18.3105 42.5643
lfingers 7.12502
lthumb 7.97064 72.394
rfemur -44.2437 -1.63154 16.4098
rtibia 29.3569
rfoot -2.00453 -10.776
rtoes 1.61726
lfemur -22.4949 1.19038 -20.6038
ltibia 44.3081
lfoot -23.2566 5.63129
ltoes -10.3309
243
root 7.25268 17.0801 5.67666 106.449 -88.2777 -98.2245
lowerback 9.72925 -2.73221 -0.0889044
upperback 5.18083 -3.84604 3.91729
thorax 0.224219 -2.09025 4.46734
lowerneck -18.073 1.54391 -2.1951
upperneck 4.07206 2.04363 4.28269
head 4.03136 1.19018 1.85477
rclavicle -3.12092e-014 3.69739e-014
rhumerus -8.96197 17.1632 -89.3715
rradius 79.2976
rwrist 1.20931
rhand -22.3557 -43.3869
rfingers 7.12502
rthumb 4.06526 -73.3278
lclavicle -3.12092e-014 3.69739e-014
lhumerus -7.8461 -38.8272 106.455
lradius 67.1841
lwrist 37.2447
lhand -18.049 41.9724
lfingers 7.12502
lthumb 8.22308 71.7924
rfemur -43.9498 -1.57103 16.3133
rtibia 28.2146
rfoot -1.71847 -10.6636
rtoes 1.5517
lfemur -21.7271 0.956838 -20.5025
ltibia 43.8862
lfoot -23.2554 5.44031
ltoes -11.0467
244
root 7.07473 17.101 5.64829 97.2459 -88.3389 -88.9355
lowerback 9.50846 -2.71721 -0.0859468
upperback 5.07311 -3.81846 3.91685
thorax 0.229928 -2.07128 4.45271
lowerneck -18.0545 1.51559 -2.17937
upperneck 4.15294 2.00363 4.27354
head 4.0553 1.17154 1.84676
rclavicle -3.61788e-014 -1.03368e-014
rhumerus -9.48307 17.1471 -89.5305
rradius 79.7025
rwrist -0.448746
rhand -21.8854 -44.2268
rfingers 7.12502
rthumb 4.51939 -74.1585
lclavicle -3.61788e-014 -1.03368e-014
lhumerus -9.15395 -38.9698 106.792
lradius 67.7884
lwrist 36.7417
lhand -17.7528 41.3755
lfingers 7.12502
lthumb 8.50891 71.1841
rfemur -43.6379 -1.49761 16.2249
rtibia 27.1743
rfoot -1.43669 -10.5852
rtoes 1.53809
lfemur -20.9824 0.725132 -20.3737
ltibia 43.504
lfoot -23.2121 5.22424
ltoes -11.7975
245
root 6.89655 17.1218 5.61815 87.0826 -88.3402 -78.6933
lowerback 9.2899 -2.69531 -0.077223
upperback 4.96892 -3.78171 3.91588
thorax 0.237192 -2.04783 4.43368
lowerneck -18.0467 1.47946 -2.18187
upperneck 4.24308 1.95532 4.28493
head 4.0837 1.14991 1.84762
rclavicle -1.66979e-014 4.92986e-014
rhumerus -9.95749 17.1438 -89.6904
rradius 80.0749
rwrist -2.09083
rhand -21.3917 -45.0629
rfingers 7.12502
rthumb 4.99617 -74.984
lclavicle -1.66979e-014 4.92986e-014
lhumerus -10.4531 -39.0791 107.128
lradius 68.3661
lwrist 36.1524
lhand -17.4351 40.7723
lfingers 7.12502
lthumb 8.81549 70.5682
rfemur -43.3112 -1.41668 16.1461
rtibia 26.2386
rfoot -1.16122 -10.536
rtoes 1.57177
lfemur -20.2664 0.493825 -20.2197
ltibia 43.1666
lfoot -23.1225 4.98165
ltoes -12.5821
246
root 6.71809 17.1426 5.58618 76.843 -88.2698 -68.3852
lowerback 9.07964 -2.66558 -0.0621445
upperback 4.86715 -3.7344 3.91638
thorax 0.241529 -2.01918 4.41238
lowerneck -18.0335 1.43464 -2.1805
upperneck 4.32831 1.89496 4.29258
head 4.11025 1.1221 1.84556
rclavicle 1.98785e-016 -2.66371e-014
rhumerus -10.3848 17.1551 -89.8488
rradius 80.4044
rwrist -3.70706
rhand -20.8793 -45.8735
rfingers 7.12502
rthumb 5.49086 -75.7824
lclavicle 1.98785e-016 -2.66371e-014
lhumerus -11.7445 -39.1529 107.466
lradius 68.9125
lwrist 35.4861
lhand -17.0931 40.1613
lfingers 7.12502
lthumb 9.1455 69.943
rfemur -42.9655 -1.32713 16.0831
rtibia 25.4025
rfoot -0.89393 -10.5153
rtoes 1.66399
lfemur -19.5793 0.264194 -20.0343
ltibia 42.8779
lfoot -22.9825 4.71035
ltoes -13.3839
247
root 6.53948 17.1633 5.55249 67.4909 -88.1287 -58.9722
lowerback 8.87642 -2.62713 -0.0400246
upperback 4.76733 -3.67527 3.91794
thorax 0.242966 -1.98466 4.38787
lowerneck -18.0232 1.38097 -2.18572
upperneck 4.41591 1.82363 4.30707
head 4.13827 1.08925 1.84581
rclavicle 2.18663e-015 2.46493e-014
rhumerus -10.7655 17.1829 -90.0045
rradius 80.6918
rwrist -5.28461
rhand -20.3442 -46.6544
rfingers 7.12502
rthumb 6.0075 -76.5492
lclavicle 2.18663e-015 2.46493e-014
lhumerus -13.0234 -39.1907 107.801
lradius 69.4232
lwrist 34.7447
lhand -16.7251 39.5449
lfingers 7.12502
lthumb 9.50056 69.3107
rfemur -42.6084 -1.2337 16.0403
rtibia 24.6695
rfoot -0.639299 -10.5177
rtoes 1.81881
lfemur -18.9293 0.0362511 -19.8186
ltibia 42.6422
lfoot -22.787 4.41309
ltoes -14.1989
248
root 6.3607 17.1841 5.51718 59.3111 -87.9185 -50.743
lowerback 8.68191 -2.58311 -0.00944151
upperback 4.67201 -3.60863 3.92108
thorax 0.24355 -1.94652 4.36029
lowerneck -18.0186 1.31809 -2.19921
upperneck 4.50542 1.74114 4.32896
head 4.16805 1.05126 1.84883
rclavicle -6.75868e-015 6.36111e-015
rhumerus -11.097 17.2288 -90.1548
rradius 80.9363
rwrist -6.81653
rhand -19.7917 -47.3892
rfingers 7.12502
rthumb 6.54091 -77.2681
lclavicle -6.75868e-015 6.36111e-015
lhumerus -14.2824 -39.1918 108.126
lradius 69.8945
lwrist 33.9326
lhand -16.3338 38.9231
lfingers 7.12502
lthumb 9.87809 68.6714
rfemur -42.2329 -1.1475 16.0186
rtibia 24.0343
rfoot -0.39781 -10.5448
rtoes 2.03112
lfemur -18.3169 -0.198793 -19.5727
ltibia 42.4631
lfoot -22.5351 4.0878
ltoes -15.0114
249
root 6.18187 17.2047 5.48024 52.7695 -87.6515 -44.1609
lowerback 8.49552 -2.52994 0.0297367
upperback 4.58034 -3.52968 3.92586
thorax 0.242363 -1.90232 4.32927
lowerneck -18.0191 1.24644 -2.21953
upperneck 4.59712 1.6479 4.35675
head 4.19963 1.00829 1.85394
rclavicle 1.63003e-014 -2.46493e-014
rhumerus -11.3767 17.2976 -90.2984
rradius 81.1323
rwrist -8.29591
rhand -19.2166 -48.078
rfingers 7.12502
rthumb 7.09605 -77.9391
lclavicle 1.63003e-014 -2.46493e-014
lhumerus -15.5205 -39.1545 108.439
lradius 70.323
lwrist 33.0534
lhand -15.9175 38.2953
lfingers 7.12502
lthumb 10.2798 68.0241
rfemur -41.8477 -1.06501 16.0272
rtibia 23.4995
rfoot -0.172881 -10.5895
rtoes 2.29925
lfemur -17.7483 -0.43221 -19.294
ltibia 42.3456
lfoot -22.225 3.73533
ltoes -15.7939
